/* XPM */
static char *c49babe50ebe41e6fed0510c0ac13f924EsjJCjkLSWJ0KIa[] = {
/* columns rows colors chars-per-pixel */
"64 64 147 2 ",
"   c #000000",
".  c #0C0800",
"X  c #0B0B0B",
"o  c #160901",
"O  c #171200",
"+  c #191300",
"@  c #151515",
"#  c #1B1B1B",
"$  c #391F06",
"%  c #2D2400",
"&  c #3B2007",
"*  c #392E00",
"=  c #3E3300",
"-  c #232323",
";  c #2C2C2C",
":  c #343434",
">  c #3C3C3C",
",  c #432509",
"<  c #4C2B0B",
"1  c #56310E",
"2  c #4E4100",
"3  c #544601",
"4  c #5C4D00",
"5  c #615100",
"6  c #6E5C00",
"7  c #764616",
"8  c #74620C",
"9  c #55443B",
"0  c #625734",
"q  c #434343",
"w  c #4B4B4B",
"e  c gray33",
"r  c #5E5E5E",
"t  c #6E6757",
"y  c #786F5A",
"u  c #636363",
"i  c #6B6B6B",
"p  c #737373",
"a  c #7B7B7B",
"s  c #834E1A",
"d  c #93581E",
"f  c #857000",
"g  c #8A7400",
"h  c #937B00",
"j  c #9A5D21",
"k  c #A76524",
"l  c #B26C27",
"z  c #BE7A27",
"x  c #C47B2A",
"c  c #84795C",
"v  c #998100",
"b  c #A38A00",
"n  c #AA8F00",
"m  c #BA9D01",
"M  c #B2811C",
"N  c #B59B34",
"B  c #BEA43E",
"V  c #C2A401",
"C  c #CCAC01",
"Z  c #D3B201",
"A  c #D9B701",
"S  c #DAB901",
"D  c #E0BD01",
"F  c #E2AD1F",
"G  c #EEBF17",
"H  c #E6B31C",
"J  c #E8B71B",
"K  c #EBBB19",
"L  c #CB8C26",
"P  c #C68129",
"I  c #CB852A",
"U  c #CE8A29",
"Y  c #D08F27",
"T  c #D08E28",
"R  c #D29327",
"E  c #D69925",
"W  c #D99F24",
"Q  c #CD8A31",
"!  c #D3953D",
"~  c #DCA322",
"^  c #DFA821",
"/  c #E0AB20",
"(  c #E6C201",
")  c #E8C501",
"_  c #EFCA03",
"`  c #F2CD01",
"'  c #F6CC0F",
"]  c #F8CF0C",
"[  c #FDD504",
"{  c #FFD801",
"}  c #FAD109",
"|  c #EFC116",
" . c #F1C514",
".. c #F4C911",
"X. c #FDD712",
"o. c #F1CE3E",
"O. c #F4D136",
"+. c #A1967A",
"@. c #CD9266",
"#. c #CF9978",
"$. c #D09973",
"%. c #D19E7F",
"&. c #CAB36D",
"*. c #EAC94C",
"=. c #E1C351",
"-. c #848484",
";. c #8A8A8A",
":. c #9F9A86",
">. c #9B9689",
",. c #929292",
"<. c #9A9A9A",
"1. c #A5A5A5",
"2. c #ABABAB",
"3. c #B1B1B1",
"4. c #B6B6B6",
"5. c #BABABA",
"6. c #BCBCBC",
"7. c #D3A284",
"8. c #D4A58A",
"9. c #D9B19B",
"0. c #DDBAA9",
"q. c #D3BEB4",
"w. c #E2C5B7",
"e. c #E2C7B9",
"r. c #C2C2C2",
"t. c #C5C5C5",
"y. c #CCCCCC",
"u. c #D2D2D2",
"i. c #DADADA",
"p. c #DEDEDE",
"a. c #E6CEC3",
"s. c #E9D5CC",
"d. c #F0E3DD",
"f. c #E1E1E1",
"g. c gray90",
"h. c #EAEAEA",
"j. c #EEEEEE",
"k. c #F2E6E1",
"l. c #F4EAE5",
"z. c #F5ECE9",
"x. c #F8F2EF",
"c. c #F3F3F3",
"v. c #F5F5F5",
"b. c #FAF7F5",
"n. c #FBF8F6",
"m. c #F9F9F9",
"M. c white",
/* pixels */
"                                                                                                                                ",
"                                                                                                                                ",
"                                                                                                                                ",
"                                                                                                                                ",
"                                                                                                                                ",
"                              - w e u u u u u u r w ;                                                                           ",
"                        ; u -.;.p p u u u u u u i p -.a r > X                                                                   ",
"                  - r a ;.i > X                     X q i a -.i >                                                               ",
"              > u ;.p w ;       ; e u u u u u u u w #       : u -.i ;                                           q q w u u u e q ",
"          > a -.i :   > r i ;.;.;.a u u u u u u u a ;.a r >     ; i -.u                                 # r a ;.-.a a i u u p a ",
"      : a -.e @ # u -.-.i e q       @ @ @ @ @ @ @     > i -.-.e     # -                               i ;.a w - . @ @ @ @ @ @   ",
"      -.u @   r ;.p w       q u p -.;.;.;.;.;.;.;.a u :     w a a e #                               : i - - r a ;.-.-.-.-.-.-.-.",
"      ;.: q -.-.:   @ q u -.;.a p u u r r r r r u i a ;.-.u # . e p -.r                               @ p ;.a > @ .         X : ",
"      u -.-.e X # p ;.-.a i r r r r r r r r r r r r r r i a ;.u -   : -.p                           r ;.u -   w r p a a i r q   ",
"            # e ;.a u r r r r r r r r r r r r r r r r r r r u a ;.r - X i a -                   q a -.: @ i ;.-.a p i i p a -.;.",
"  # i a a a ;.-.p r r r r r r r r r r r r r r r r r r r r r r r u -.;.i - i a X               e ;.r @ q -.-.u r r r r r r r r u ",
"  p a i i i u r r r r r r r r r r r r r r e w w e e e e w w w w w w e ;.a > a p             . a >   i ;.p r r r r r r r r r r r ",
"  p -.p p i u r r r r r w q : # . . . .                   ,.<.<.<.<.<.1.1.e X q                     ; ; . . . # : ; ; ; ; : q e ",
"  - r i i a ;.;.p - -.;.2.y.f.c.c.<.  e ;..               1.M.M.M.M.M.M.M.6.                      ;.5.p             ,.g.c.h.u.,.",
"              e -.4.M.M.M.M.M.M.y.    r.M.a                 h.M.M.M.M.M.M.M.,.                  u g.> u <.X           i m.M.M.M.",
"                - : t.M.M.M.M.M.p     -.3.#     q 5.u.6.    6.M.M.M.M.M.M.M.i.                # g.1.  5.M.-       - q   u.M.M.M.",
"                      3.M.M.M.c.                <.M.M.v.    6.M.M.M.M.M.M.M.v.                r.M.u   u <.X     -.c.M.e 1.M.M.M.",
"                        p i.M.f.        u.;.    <.M.M.6.    6.M.M.M.M.M.M.M.m.;             i M.M.u             6.M.M.e 1.M.M.M.",
"                    e -     a 3.        -.w     # ,.a .     t.M.M.M.M.M.M.M.M.e             4.M.M.u   # 2.X     3.M.j.; 1.M.M.M.",
"                    w ;.r                                   f.M.M.M.M.M.M.M.m.              h.M.M.-.  - r.@             2.M.M.M.",
"                      : a p :                             w M.M.M.M.M.M.M.M.m.              r.g.v.6.                  ; h.M.M.j.",
"                        . u -.i                           3.M.M.M.M.M.M.M.j.;.                                      ; 2.r.,.u ; ",
"                            - p -.r -                     6.u.u.u.u.4.3.;.                                                      ",
"                                : p -.u w q X                                 :     = g g f %                                   ",
"                                    - r p a ;.a p i u u w ;             : w p -.8 D { { { { _ c q q ;                   # q q i ",
"                                            X > w r u i a -.;.;.;.;.;.>.:.&.*.[ { { { { { { { [ O.*.=.B y e e :         a a a i ",
"                                                              O b C ) { { { { { { { { { { { { {  .~  .{ X.o.&.t + .         . u ",
"                                                        * m ( [ { ..~ U J { { { { { { { { { { { {  .E E } { { { { ` ( Z C N +.a ",
"    : u a e                                     O v S ` [ { { K U T K [ { { { { { { { { { { { { { { { G U ..{ { { { { } { { } ( ",
"  w ;.i w ;                               5 V A ` { { { [ J T W ' { { { { { { { { { { { { { { { { { { { ..U  .{ { { { { { { { { ",
"                                    % h A ` { { { [  .W I W ..{ { { { { { { { { { { { { { { { { { { { { { ..U ..{ { { { { { { { ",
"      X @ @ X           2 h m m S S _ { { { { {  .U E G { { { { { { { { { { { { { { { { { { { { { { { { { { ..U  .{ { { { { { { ",
"  - u ;.-.-.p     4 m Z [ { { { { { { { { { { { [ ] { { { { { { { { { { { { { { { { { { { { { { { { { { { { { ..H { { { { { { { ",
"e -.p 0 3 3 6 n Z { { { { { { { { { { { { { { { { { { { { { { { { { { { { { { { { { { { { { { { { { { { { { { { { { { { { { { { ",
"-.9 M { { { { { { { { { { { { { { { { { { { { { { { { { { { { { { { { { { { { { { { { { { { { { { { { { { { { { { { { { { { { { ",
"; k F { { { { { { { { { { { { { { { { { { { { { { { { { { { { { { { { { { { { { { { { { { { { { { { { { { { { { { { { { { { { { ",
"  x [ { { { { { { { { { { { { { { { { { { { { { { { { { { { { { { { { { { { { { { { { { { { { { { { { { { { { { { { { { { { { { ",
"  P { { {  .} { { { { { { { { { { { { { { { { { { { { { { { { { { { { { { { { { { { { { { { { { { { { { { { { { { { { { { { { { ",
"  k K { {  .U K { { { { { { { { { { { { { { { { { { { { { { { { { { { { { { { { { { { { { { { { { { { { { { { { { { { { { { { { ",
"  < P G { { } ~ T G { { { { { { { { { { { { { { { { { { { { { { { { { { { { { { { { { { { { { { { { { { { { { { { { { { { { { { ",
"    < k R ] { { } W E  .{ { { { { { { { { { { { { { { { { { { { { { { { { { { { { { { { { { { { { { { { { { { { { { { { { { { { ",
"        7 z J { { {  .E U F ' { { { { { { { { { { { { { { { { { { { { { { { { { { { { { { { { { { { { { { { { { { { { { { { { { ",
"          , j L  .{ { { } G E R K } { { { { { { { { { { { { { { { { { { { { { { { { { { { { { { { { { { { { { { { { { { { { { { ",
"              1 l ~ } { { { { ..H U W  .] { { { { { { { { { { { { { { { { { { { { { { { { { { { { { { { { { { { { { { { { { { { ",
"                o s P J { { { { { { ..^ R I E H ' { { { { { { { { { { { { { { { { { { { { { { { { { { { { { { { { { { { { { { { ",
"                    < j L J [ { { { { { { { ] H W U / ..{ { { { { { { { { { { { { { { { { { { { { { { { { { { { { { { { { { { ..",
"                        $ d P H { { { { { { { { { { K E T E F H | | ] [ { { { { { { { { { { { { { { { { { { { { { { { { { { J U ",
"                            < j U H { { { { { { { { { { [ ' G K F F E R U R ~ H H  . . .} { { { { { { { { { { { { { }  .H R W ] ",
"                                & j L J } { { { { { { { { { { { { { { { { ]  .J H ~ ~ ~ Y U R R R R R R R R I U U U U ~ H  .{ { ",
"                                    , q.$.W K } { { { { { { { { { { { { { { { { { { { { { { [ [ [ [ [ [ [ [ { { { { { { { { { { ",
"                                      m.M.d.e.$.E H ..{ { { { { { { { { { { { { { { { { { { { { { { { { { { { { { { { { { { { { ",
"                                      M.M.M.M.M.z.a.8.! ~ G ..[ { { { { { { { { { { { { { { { { { { { { { { { { { { { { { {  .R ",
"                                      M.M.M.M.M.M.M.M.n.k.a.9.@.Q W W H H K  .} { { { { { { { { { { { { { { { { { { ]  .F E 7.d.",
"                                    w M.M.M.M.M.M.M.M.M.M.M.M.M.n.z.l.s.s.e.0.7.$.R R R R ^ ^ ^ ^ ^ R R R R R U @.#.%.0.w.z.M.M.",
"                                    4.M.M.M.M.M.M.M.M.M.M.M.M.M.M.M.M.M.M.M.M.M.M.n.n.n.b.k.k.k.k.k.x.n.n.n.n.n.M.M.M.M.M.M.M.M.",
"                                    p.M.M.M.M.M.M.M.M.M.M.M.M.M.M.M.M.M.M.M.M.M.M.M.M.M.M.M.M.M.M.M.M.M.M.M.M.M.M.M.M.M.M.M.M.M.",
"                                  : v.M.M.M.M.M.M.M.M.M.M.M.M.M.M.M.M.M.M.M.M.M.M.M.M.M.M.M.M.M.M.M.M.M.M.M.M.M.M.M.M.M.M.M.M.M.",
"                                  2.M.M.M.M.M.M.M.M.M.M.M.M.M.M.M.M.M.M.M.M.M.M.M.M.M.M.M.M.M.M.M.M.M.M.M.M.M.M.M.M.M.M.M.M.M.j.",
"                                  j.M.M.M.M.M.M.M.M.M.M.M.M.M.M.M.M.M.M.M.M.M.M.M.M.M.M.M.M.M.M.M.M.M.M.M.M.M.M.M.M.M.M.M.M.M.p."
};
